<?xml version="1.0" encoding="utf-8"?>
<!-- Generator: Adobe Illustrator 27.0.1, SVG Export Plug-In . SVG Version: 6.00 Build 0)  -->
<svg version="1.1" id="Layer_2_00000127753876720762797200000010333382162386515621_"
	 xmlns="http://www.w3.org/2000/svg" xmlns:xlink="http://www.w3.org/1999/xlink" x="0px" y="0px" viewBox="0 0 1307 1424.5"
	 style="enable-background:new 0 0 1307 1424.5;" xml:space="preserve">
<style type="text/css">
	.st0{fill:url(#SVGID_1_);}
	.st1{fill:url(#SVGID_00000056426828746455310730000011648399939666632613_);}
	.st2{fill:url(#SVGID_00000070812339401377479660000000997989771024114056_);}
	.st3{fill:url(#SVGID_00000016061884566383360810000012930297658215427246_);}
	.st4{fill:url(#SVGID_00000120537113482564846390000006937646906275048346_);}
	.st5{fill:url(#SVGID_00000003817248500468052990000007806979827859945093_);}
	.st6{fill:url(#SVGID_00000183946300850329033550000016677659481264935579_);}
	.st7{fill:url(#SVGID_00000029033282607942872690000013321508329872033925_);}
	.st8{fill:#5CB954;}
	.st9{fill:#009BC6;}
	.st10{fill:url(#SVGID_00000145022582863316599620000016930722584674719400_);}
	.st11{fill:url(#SVGID_00000107565999332266419120000007573843589615822760_);}
	.st12{fill:url(#SVGID_00000087400751986096853860000008410956462595167365_);}
	.st13{fill:url(#SVGID_00000137819933377289559700000000686714386281247927_);}
	.st14{fill:#E72055;}
</style>
<g id="Layer_1-2">
	<g>
		
			<radialGradient id="SVGID_1_" cx="4020.6572" cy="1184.6993" r="2.81" gradientTransform="matrix(159.9181 -93.4486 104.1749 178.2739 -766058.5625 165389.8125)" gradientUnits="userSpaceOnUse">
			<stop  offset="0.22" style="stop-color:#5DBA56"/>
			<stop  offset="1" style="stop-color:#18717D"/>
		</radialGradient>
		<path class="st0" d="M378.5,344.9l14.2-8.3V865l455.8,264.2l-14.2,8.3L378.5,873.2V344.9L378.5,344.9z"/>
		
			<radialGradient id="SVGID_00000102532678575581104970000003013334578746783422_" cx="4019.1792" cy="1184.8652" r="2.81" gradientTransform="matrix(152.5642 -86.9858 96.9613 170.0602 -727672.375 148947.1875)" gradientUnits="userSpaceOnUse">
			<stop  offset="0.23" style="stop-color:#5DBA56"/>
			<stop  offset="1" style="stop-color:#18717D"/>
		</radialGradient>
		<path style="fill:url(#SVGID_00000102532678575581104970000003013334578746783422_);" d="M407,328.4l14.3-8.3v528.4L877,1112.6
			l-14.2,8.3L407,856.7V328.4z"/>
		
			<radialGradient id="SVGID_00000005247919624034125790000011854744198732258999_" cx="4016.9609" cy="1184.6395" r="2.81" gradientTransform="matrix(141.1065 -80.29 89.5232 157.3335 -672409.3125 136919.2344)" gradientUnits="userSpaceOnUse">
			<stop  offset="0.22" style="stop-color:#5DBA56"/>
			<stop  offset="1" style="stop-color:#18717D"/>
		</radialGradient>
		<path style="fill:url(#SVGID_00000005247919624034125790000011854744198732258999_);" d="M435.5,311.9l14.2-8.2V832l455.8,264.2
			l-14.2,8.3L435.5,840.2V311.9z"/>
		
			<radialGradient id="SVGID_00000093159646987350948030000002756846183911401093_" cx="4014.9458" cy="1184.2833" r="2.81" gradientTransform="matrix(132.5572 -76.2238 84.9822 147.7886 -632390.625 131778.9062)" gradientUnits="userSpaceOnUse">
			<stop  offset="0.22" style="stop-color:#5DBA56"/>
			<stop  offset="1" style="stop-color:#18717D"/>
		</radialGradient>
		<path style="fill:url(#SVGID_00000093159646987350948030000002756846183911401093_);" d="M464,295.3l14.2-8.3v528.4L934,1079.6
			l-14.2,8.3L464,823.7V295.3z"/>
		
			<radialGradient id="SVGID_00000041292100518098483730000002230353840763956415_" cx="4021.645" cy="1184.9445" r="2.81" gradientTransform="matrix(162.5378 -92.9733 103.6633 181.2264 -775995.0625 159916.4688)" gradientUnits="userSpaceOnUse">
			<stop  offset="0.23" style="stop-color:#009CC7"/>
			<stop  offset="1" style="stop-color:#453585"/>
		</radialGradient>
		<path style="fill:url(#SVGID_00000041292100518098483730000002230353840763956415_);" d="M549.3,245.8l14.2-8.3v528.3l455.8,264.2
			l-14.2,8.3L549.3,774.2V245.8L549.3,245.8L549.3,245.8z"/>
		
			<radialGradient id="SVGID_00000113344647465508808370000001585546359493128580_" cx="4020.3159" cy="1184.6272" r="2.81" gradientTransform="matrix(152.5459 -88.6413 98.8303 170.0805 -729727.3125 155572.9531)" gradientUnits="userSpaceOnUse">
			<stop  offset="0.23" style="stop-color:#009CC7"/>
			<stop  offset="1" style="stop-color:#453585"/>
		</radialGradient>
		<path style="fill:url(#SVGID_00000113344647465508808370000001585546359493128580_);" d="M577.7,229.3l14.2-8.3v528.3l455.8,264.2
			l-14.2,8.3L577.7,757.7V229.3L577.7,229.3z"/>
		
			<radialGradient id="SVGID_00000076603536730883521410000007231829153255404699_" cx="4017.8782" cy="1184.5999" r="2.81" gradientTransform="matrix(141.5832 -81.2496 90.597 157.8717 -675555.8125 140139.1875)" gradientUnits="userSpaceOnUse">
			<stop  offset="0.22" style="stop-color:#009CC7"/>
			<stop  offset="1" style="stop-color:#453585"/>
		</radialGradient>
		<path style="fill:url(#SVGID_00000076603536730883521410000007231829153255404699_);" d="M606.2,212.8l14.3-8.3v528.3l455.8,264.2
			l-14.2,8.3L606.2,741.2V212.8z"/>
		
			<radialGradient id="SVGID_00000152962601328013406450000006846751943440507549_" cx="4015.9858" cy="1184.5007" r="2.81" gradientTransform="matrix(133.263 -75.7347 84.4505 148.5993 -634550.75 128802.1094)" gradientUnits="userSpaceOnUse">
			<stop  offset="0.23" style="stop-color:#009CC7"/>
			<stop  offset="1" style="stop-color:#453585"/>
		</radialGradient>
		<path style="fill:url(#SVGID_00000152962601328013406450000006846751943440507549_);" d="M634.7,196.3L649,188v528.3l455.8,264.2
			l-14.2,8.3L634.7,724.6V196.3L634.7,196.3z"/>
		<path class="st8" d="M378.5,344.9L834.3,609v528.3l99.7-57.8V551.3L478.2,287.1L378.5,344.9L378.5,344.9z"/>
		<path class="st9" d="M549.3,245.8L1005.1,510v528.3l99.7-57.8V452.2L648.9,188L549.3,245.8L549.3,245.8z"/>
		
			<radialGradient id="SVGID_00000178187922150945937510000007713193969333832621_" cx="4019.9773" cy="1184.6993" r="2.81" gradientTransform="matrix(159.9181 -93.4486 104.1749 178.2739 -766118.5625 165424.875)" gradientUnits="userSpaceOnUse">
			<stop  offset="0.23" style="stop-color:#E72055"/>
			<stop  offset="1" style="stop-color:#972987"/>
		</radialGradient>
		<path style="fill:url(#SVGID_00000178187922150945937510000007713193969333832621_);" d="M207.8,443.9l14.2-8.3V964l455.8,264.2
			l-14.2,8.3L207.8,972.3V443.9z"/>
		
			<radialGradient id="SVGID_00000053524196549725900580000007895486050825197952_" cx="4018.4492" cy="1184.8752" r="2.81" gradientTransform="matrix(152.5642 -86.9858 96.9613 170.0602 -727733.375 148982.625)" gradientUnits="userSpaceOnUse">
			<stop  offset="0.23" style="stop-color:#E72055"/>
			<stop  offset="1" style="stop-color:#972987"/>
		</radialGradient>
		<path style="fill:url(#SVGID_00000053524196549725900580000007895486050825197952_);" d="M236.3,427.4l14.3-8.3v528.3l455.8,264.2
			l-14.2,8.3L236.3,955.8V427.4L236.3,427.4z"/>
		
			<radialGradient id="SVGID_00000142151250317051997620000009272170896777507756_" cx="4016.1809" cy="1184.6395" r="2.81" gradientTransform="matrix(141.1065 -80.29 89.5232 157.3335 -672470.125 136953.8281)" gradientUnits="userSpaceOnUse">
			<stop  offset="0.23" style="stop-color:#E72055"/>
			<stop  offset="1" style="stop-color:#972987"/>
		</radialGradient>
		<path style="fill:url(#SVGID_00000142151250317051997620000009272170896777507756_);" d="M264.8,410.9l14.2-8.2V931l455.8,264.2
			l-14.2,8.3L264.8,939.3V410.9L264.8,410.9z"/>
		
			<radialGradient id="SVGID_00000041256643412555741210000014272111183087192212_" cx="4014.116" cy="1184.2833" r="2.81" gradientTransform="matrix(132.5572 -76.2238 84.9822 147.7886 -632451.25 131813.75)" gradientUnits="userSpaceOnUse">
			<stop  offset="0.23" style="stop-color:#E72055"/>
			<stop  offset="1" style="stop-color:#972987"/>
		</radialGradient>
		<path style="fill:url(#SVGID_00000041256643412555741210000014272111183087192212_);" d="M293.3,394.4l14.2-8.3v528.4l455.8,264.2
			l-14.2,8.3L293.3,922.8V394.4L293.3,394.4z"/>
		<path class="st14" d="M207.8,443.9l455.8,264.2v528.3l99.7-57.8V650.4L307.5,386.1L207.8,443.9L207.8,443.9z"/>
	</g>
</g>
</svg>
