<?xml version="1.0" encoding="utf-8"?>
<!-- Generator: Adobe Illustrator 27.2.0, SVG Export Plug-In . SVG Version: 6.00 Build 0)  -->
<svg version="1.1" id="Layer_1" xmlns="http://www.w3.org/2000/svg" xmlns:xlink="http://www.w3.org/1999/xlink" x="0px" y="0px"
	 viewBox="0 0 345 450.1" style="enable-background:new 0 0 345 450.1;" xml:space="preserve">
<style type="text/css">
	.st0{fill:#241F20;}
</style>
<g>
	<g>
		<path class="st0" d="M47.2,222.7c-8.6,4.7-4.4,19.4,5.1,22.6L172,285.2c0.3,0.1,0.7,0.1,1,0l126-52c1.3-0.5,1.2-2.4-0.1-2.8
			l-114.4-38.2c-10.3-3.4-14.6-18.1-2.2-24.7l113-61.1c8.6-4.7,4.4-19.4-5.1-22.6L170.5,43.9c-0.3-0.1-0.7-0.1-1,0l-126,52
			c-1.3,0.5-1.2,2.4,0.1,2.8L158,136.9c10.3,3.4,14.6,18.1,2.2,24.7L47.2,222.7z"/>
	</g>
	<g>
		<g>
			<g>
				<g>
					<g>
						<g>
							<path class="st0" d="M42.5,380.9L77.4,338H43.5v-8.9h45.7v9.6l-34.4,42.7h36.5v9H42.5V380.9z"/>
						</g>
						<g>
							<path class="st0" d="M97.9,346.7h10.3v43.8H97.9V346.7z"/>
						</g>
						<g>
							<path class="st0" d="M116.6,346.7h10.3l-0.2,9.7h0.5c1.1-4.5,6-11,15.2-11c11.3,0,19.5,9.3,19.5,23s-7.8,23.5-19.2,23.5
								c-9.6,0-14.1-6.7-15.4-10.9h-0.4v25.3h-10.3C116.6,406.3,116.6,346.7,116.6,346.7z M138.8,383.1c6.9,0,12.4-4.9,12.4-14.6
								s-5.4-14.5-12.4-14.5s-12.3,4.9-12.3,14.5C126.6,378.2,131.8,383.1,138.8,383.1z"/>
						</g>
						<g>
							<path class="st0" d="M168.4,378.3v-49.2h10.2v47.4c0,3.4,1.3,5.3,4.8,5.3h2.8v8.6h-5.5C172.6,390.5,168.4,386.5,168.4,378.3z
								"/>
						</g>
						<g>
							<path class="st0" d="M190.9,329.2h10.3v10.3h-10.3V329.2z M190.9,346.7h10.3v43.8h-10.3V346.7z"/>
						</g>
						<g>
							<path class="st0" d="M209.6,346.7h10.3l-0.2,11.2h0.4c1.2-6.7,7.1-12.5,14.7-12.5c10.5,0,15.2,6.6,15.2,18.6v26.6h-10.3
								v-25.2c0-7.4-3.3-11.4-9.3-11.4c-6.6,0-10.5,6.7-10.5,13.7v23h-10.3L209.6,346.7L209.6,346.7z"/>
						</g>
						<g>
							<path class="st0" d="M255.6,368.6c0-14.3,9.2-23.2,22.4-23.2c12.7,0,21.8,7.6,21.8,22c0,1.6-0.1,2.7-0.3,3.6h-34.1
								c0.4,8.5,5.7,12.9,12.7,12.9c5.3,0,9.6-2.5,11-7.6h10.1c-1.7,10.3-10.3,15.6-21.6,15.6C265.6,391.8,255.6,383.8,255.6,368.6z
								 M289.5,364.7c0-7-4.6-11.8-11.7-11.8c-6.9,0-11.6,4.9-12,11.8H289.5z"/>
						</g>
					</g>
				</g>
			</g>
		</g>
		<g>
			<rect x="97.9" y="329.2" class="st0" width="10.3" height="10.3"/>
		</g>
	</g>
</g>
</svg>
