<svg width="670" height="567" viewBox="0 0 670 567" fill="none" xmlns="http://www.w3.org/2000/svg">
<path d="M302.197 126.855L232.624 147.578C227.792 149.018 227.792 155.861 232.624 157.3L302.197 178.024C323.927 184.497 347.073 184.497 368.803 178.024L438.376 157.3C443.208 155.861 443.208 149.018 438.376 147.578L368.803 126.855C347.073 120.382 323.927 120.382 302.197 126.855Z" fill="#643AED"/>
<path d="M302.197 195.342L232.624 216.065C227.792 217.505 227.792 224.348 232.624 225.788L302.197 246.511C323.927 252.984 347.073 252.984 368.803 246.511L438.376 225.788C443.208 224.348 443.208 217.505 438.376 216.065L368.803 195.342C347.073 188.869 323.927 188.869 302.197 195.342Z" fill="#643AED"/>
<path d="M283.5 338.01C262.24 338.01 245 352.17 245 378.58V446.01H262.05V408.47C268.18 412.59 275.56 415 283.5 415C304.76 415 322 397.76 322 376.5C322 355.24 304.76 338 283.5 338V338.01ZM283.5 398.05C271.6 398.05 261.96 388.41 261.96 376.51C261.96 364.61 271.6 354.97 283.5 354.97C295.4 354.97 305.04 364.61 305.04 376.51C305.04 388.41 295.4 398.05 283.5 398.05Z" fill="#643AED"/>
<path d="M215 313V332H232V313H215Z" fill="#643AED"/>
<path d="M363 313V332H380V313H363Z" fill="#643AED"/>
<path d="M202 330L145 398H202V415H122V398L179 330H122V313H202V330Z" fill="#643AED"/>
<path d="M215 415V346H232V415H215Z" fill="#643AED"/>
<path d="M363 415V346H380V415H363Z" fill="#643AED"/>
<path d="M333 415L333 313H350V415H333Z" fill="#643AED"/>
<path fill-rule="evenodd" clip-rule="evenodd" d="M509.5 338C530.763 338 548 355.237 548 376.5C548 378.715 547.81 380.887 547.451 383H489.001C491.756 391.697 499.892 398 509.5 398C515.787 398 521.443 395.301 525.374 391H545.173C539.446 405.076 525.633 415 509.5 415C488.237 415 471 397.763 471 376.5C471 355.237 488.237 338 509.5 338ZM509.5 355C500.264 355 492.389 360.824 489.346 369H529.654C526.611 360.824 518.736 355 509.5 355Z" fill="#643AED"/>
<path d="M462 372.5C462 353.446 446.554 338 427.5 338C408.446 338 393 353.446 393 372.5V415H410V372.5C410 362.835 417.835 355 427.5 355C437.165 355 445 362.835 445 372.5V415H462V372.5Z" fill="#643AED"/>
</svg>
