<?xml version="1.0" encoding="UTF-8" standalone="no"?>
<!-- Created with Inkscape (http://www.inkscape.org/) -->

<svg
   xmlns:dc="http://purl.org/dc/elements/1.1/"
   xmlns:cc="http://creativecommons.org/ns#"
   xmlns:rdf="http://www.w3.org/1999/02/22-rdf-syntax-ns#"
   xmlns:svg="http://www.w3.org/2000/svg"
   xmlns="http://www.w3.org/2000/svg"
   xmlns:sodipodi="http://sodipodi.sourceforge.net/DTD/sodipodi-0.dtd"
   xmlns:inkscape="http://www.inkscape.org/namespaces/inkscape"
   version="1.1"
   id="svg2"
   xml:space="preserve"
   width="793.70667"
   height="793.70667"
   viewBox="0 0 793.70667 793.70667"
   sodipodi:docname="org-carex.svg"
   inkscape:version="0.92.5 (2060ec1f9f, 2020-04-08)"><metadata
     id="metadata8"><rdf:RDF><cc:Work
         rdf:about=""><dc:format>image/svg+xml</dc:format><dc:type
           rdf:resource="http://purl.org/dc/dcmitype/StillImage" /><dc:title></dc:title></cc:Work></rdf:RDF></metadata><defs
     id="defs6"><clipPath
       clipPathUnits="userSpaceOnUse"
       id="clipPath18"><path
         d="M 0,595.28 H 595.28 V 0 H 0 Z"
         id="path16"
         inkscape:connector-curvature="0" /></clipPath><linearGradient
       x1="0"
       y1="0"
       x2="1"
       y2="0"
       gradientUnits="userSpaceOnUse"
       gradientTransform="matrix(250.12061,-250.12061,-250.12061,-250.12061,128.49927,404.5325)"
       spreadMethod="pad"
       id="linearGradient56"><stop
         style="stop-opacity:1;stop-color:#00e6e6"
         offset="0"
         id="stop48" /><stop
         style="stop-opacity:1;stop-color:#00c8da"
         offset="0.25"
         id="stop50" /><stop
         style="stop-opacity:1;stop-color:#00c8da"
         offset="0.44727766"
         id="stop52" /><stop
         style="stop-opacity:1;stop-color:#132e65"
         offset="1"
         id="stop54" /></linearGradient></defs><sodipodi:namedview
     pagecolor="#ffffff"
     bordercolor="#666666"
     borderopacity="1"
     objecttolerance="10"
     gridtolerance="10"
     guidetolerance="10"
     inkscape:pageopacity="0"
     inkscape:pageshadow="2"
     inkscape:window-width="1920"
     inkscape:window-height="1163"
     id="namedview4"
     showgrid="false"
     inkscape:zoom="0.29733907"
     inkscape:cx="396.85333"
     inkscape:cy="396.85333"
     inkscape:window-x="1920"
     inkscape:window-y="0"
     inkscape:window-maximized="1"
     inkscape:current-layer="g10" /><g
     id="g10"
     inkscape:groupmode="layer"
     inkscape:label="org-carex"
     transform="matrix(1.3333333,0,0,-1.3333333,0,793.70667)"><g
       id="g12"><g
         id="g14"
         clip-path="url(#clipPath18)"><g
           id="g20"
           transform="translate(455.4687,324.6372)"><path
             d="m 0,0 c 0.005,36.806 -29.935,66.754 -66.74,66.759 h -0.01 c -17.827,0 -34.585,-6.94 -47.193,-19.544 -12.609,-12.606 -19.554,-29.367 -19.557,-47.197 -0.003,-17.83 6.938,-34.594 19.544,-47.203 12.605,-12.608 29.367,-19.554 47.196,-19.557 h 0.01 c 17.827,0 34.585,6.941 47.192,19.544 C -6.948,-34.591 -0.003,-17.83 0,0 m 38.842,-128.95 c -5.95,0 -11.901,2.27 -16.441,6.81 L -4.86,-94.878 c -18.243,-11.952 -39.574,-18.364 -61.89,-18.364 h -0.016 c -30.251,0.004 -58.688,11.788 -80.076,33.182 -21.387,21.393 -33.162,49.834 -33.158,80.085 0.009,62.438 50.814,113.234 113.25,113.234 h 0.016 C -4.288,113.25 46.509,62.44 46.5,-0.007 46.497,-22.375 40.052,-43.753 28.045,-62.022 l 27.237,-27.237 c 9.079,-9.08 9.079,-23.801 0,-32.881 -4.54,-4.54 -10.49,-6.81 -16.44,-6.81"
             style="fill:#00c8da;fill-opacity:1;fill-rule:nonzero;stroke:none"
             id="path22"
             inkscape:connector-curvature="0" /></g><g
           id="g24"
           transform="translate(388.7178,281.2198)"><path
             d="m 0,0 c -12.385,0 -20.641,4.737 -25.983,14.907 -1.157,2.201 -0.31,4.922 1.89,6.077 2.201,1.158 4.922,0.309 6.076,-1.891 C -15.263,13.851 -11.174,9 0,9 c 11.174,0 15.263,4.851 18.017,10.093 1.155,2.199 3.874,3.049 6.076,1.891 2.2,-1.155 3.047,-3.876 1.89,-6.077 C 20.641,4.737 12.385,0 0,0"
             style="fill:#00c8da;fill-opacity:1;fill-rule:nonzero;stroke:none"
             id="path26"
             inkscape:connector-curvature="0" /></g><g
           id="g28"
           transform="translate(352.6953,315.898)"><path
             d="m 0,0 c -9.563,0 -15.922,5.768 -17.449,15.825 -0.373,2.457 1.316,4.751 3.773,5.124 2.465,0.37 4.751,-1.316 5.125,-3.774 C -7.451,9.929 -3.403,9 0,9 c 3.403,0 7.452,0.929 8.551,8.175 0.373,2.457 2.671,4.146 5.124,3.774 2.457,-0.373 4.147,-2.667 3.774,-5.124 C 15.924,5.768 9.563,0 0,0"
             style="fill:#00c8da;fill-opacity:1;fill-rule:nonzero;stroke:none"
             id="path30"
             inkscape:connector-curvature="0" /></g><g
           id="g32"
           transform="translate(424.7412,315.898)"><path
             d="m 0,0 c -9.563,0 -15.922,5.768 -17.449,15.825 -0.373,2.457 1.316,4.751 3.773,5.124 2.464,0.37 4.751,-1.316 5.125,-3.774 C -7.451,9.929 -3.403,9 0,9 c 3.403,0 7.451,0.929 8.551,8.175 0.373,2.458 2.66,4.146 5.125,3.774 2.457,-0.373 4.146,-2.667 3.773,-5.124 C 15.922,5.768 9.563,0 0,0"
             style="fill:#00c8da;fill-opacity:1;fill-rule:nonzero;stroke:none"
             id="path34"
             inkscape:connector-curvature="0" /></g></g></g><g
       id="g36"><g
         id="g38"><g
           id="g44"><g
             id="g46"><path
               d="M 207.016,437.885 C 145.044,437.032 94.955,385.897 95.358,323.898 v 0 c 0.194,-29.982 11.985,-58.168 33.195,-79.361 v 0 L 232.725,140.388 c 18.18,-18.178 42.057,-27.266 65.935,-27.266 v 0 c 23.88,0 47.76,9.09 65.939,27.269 v 0 l 50.267,50.268 c -8.464,-1.642 -17.203,-2.512 -26.147,-2.512 v 0 c -12.839,0 -25.26,1.775 -37.039,5.088 v 0 L 331.717,173.272 C 313.49,155.044 283.832,155.043 265.604,173.27 v 0 L 161.427,277.426 c -12.506,12.494 -19.456,29.106 -19.57,46.774 v 0 c -0.238,36.545 29.28,66.687 65.8,67.19 v 0 c 18.031,0.231 35.005,-6.578 47.822,-19.22 v 0 c 1.334,-1.317 2.591,-2.689 3.798,-4.093 v 0 c 5.218,15.558 13.166,29.861 23.269,42.349 v 0 c -20.564,17.784 -46.467,27.47 -73.872,27.471 v 0 c -0.553,0 -1.104,-0.004 -1.658,-0.012"
               style="fill:url(#linearGradient56);stroke:none"
               id="path58"
               inkscape:connector-curvature="0" /></g></g></g></g></g></svg>